<?xml version="1.0" encoding="UTF-8" standalone="no"?>
<!-- Created with Inkscape (http://www.inkscape.org/) -->

<svg
   xmlns:dc="http://purl.org/dc/elements/1.1/"
   xmlns:cc="http://creativecommons.org/ns#"
   xmlns:rdf="http://www.w3.org/1999/02/22-rdf-syntax-ns#"
   xmlns:svg="http://www.w3.org/2000/svg"
   xmlns="http://www.w3.org/2000/svg"
   xmlns:sodipodi="http://sodipodi.sourceforge.net/DTD/sodipodi-0.dtd"
   xmlns:inkscape="http://www.inkscape.org/namespaces/inkscape"
   width="297mm"
   height="210mm"
   viewBox="0 0 297 210"
   version="1.1"
   id="svg43"
   inkscape:version="0.92.5 (2060ec1f9f, 2020-04-08)"
   sodipodi:docname="Hallfors logo.svg">
  <defs
     id="defs37" />
  <sodipodi:namedview
     id="base"
     pagecolor="#ffffff"
     bordercolor="#666666"
     borderopacity="1.0"
     inkscape:pageopacity="0.0"
     inkscape:pageshadow="2"
     inkscape:zoom="1.4237103"
     inkscape:cx="645.54665"
     inkscape:cy="488.1611"
     inkscape:document-units="mm"
     inkscape:current-layer="layer1"
     showgrid="false"
     inkscape:window-width="2554"
     inkscape:window-height="1376"
     inkscape:window-x="0"
     inkscape:window-y="192"
     inkscape:window-maximized="0" />
  <metadata
     id="metadata40">
    <rdf:RDF>
      <cc:Work
         rdf:about="">
        <dc:format>image/svg+xml</dc:format>
        <dc:type
           rdf:resource="http://purl.org/dc/dcmitype/StillImage" />
        <dc:title></dc:title>
      </cc:Work>
    </rdf:RDF>
  </metadata>
  <g
     inkscape:label="Layer 1"
     inkscape:groupmode="layer"
     id="layer1"
     transform="translate(0,-87)">
    <path
       style="fill:#000000;fill-rule:evenodd;stroke:none;stroke-width:0.09901999px;stroke-linecap:butt;stroke-linejoin:miter;stroke-opacity:1"
       d="m 206.30977,141.67539 c -1.71618,-0.0149 -3.60586,0.20018 -5.68719,0.6789 -2.18101,0.49326 -4.83852,2.45522 -5.37066,4.82625 -1.45811,5.23225 -8.15845,6.59087 -11.72123,10.27569 2.23214,3.07734 9.41173,-1.47134 13.56528,-0.65777 3.32169,1.59806 9.24778,1.91992 10.24888,5.51186 3.74459,15.80701 -10.57108,31.61325 -6.77345,43.60569 4.23516,9.81055 27.34184,22.60489 25.89474,31.43541 -2.1591,1.70801 -4.51201,2.70619 -7.82393,3.14868 -0.33976,1.67255 7.76822,2.39688 1.72728,1.89266 -2.73337,-0.4538 -7.88829,-2.27842 -6.17467,1.76063 -0.97939,2.44339 -8.04499,1.30536 -2.9959,3.2956 4.58586,0.75505 9.94808,1.63444 14.13277,-0.0331 2.53726,-0.5501 2.29946,-1.06258 6.08671,-0.80133 3.25073,-0.54962 -1.86985,-3.13593 3.11615,-3.52942 3.60315,-0.37889 6.88883,0.21624 4.64219,-4.5761 0.23112,-0.8806 1.15329,-0.36278 3.30945,0.52526 1.45264,0.45833 2.51065,0.80654 4.05582,1.46487 0.64545,0.11092 1.76645,0.72816 2.77477,0.80085 12.36734,1.66951 25.4933,-5.52052 33.97309,-12.55102 0.82987,-1.91854 10.36725,-6.22236 5.74683,-6.08178 -8.47768,1.25166 -11.1636,-3.83071 -16.56217,-6.92824 -13.58859,-8.80299 -23.57589,-26.42488 -36.93521,-29.74536 -4.47877,-0.5491 -9.35775,-2.60843 -10.53659,-6.84374 -1.52762,-3.21394 -1.57588,-6.39009 -1.67262,-9.68658 -0.58477,-12.30374 -3.04567,-27.66654 -17.02034,-27.78788 z m 24.99484,94.2683 c 1.48406,0.23301 3.56692,0.18551 3.50921,2.13464 -1.37684,-0.66083 -6.08119,0.70546 -3.85159,-1.86385 0.18085,-0.20412 0.1941,-0.21456 0.34238,-0.27079 z m -0.1615,0.0667 c 0.0154,-7.4e-4 -0.047,0.0246 0,0 z m 1.05246,0.085 c 0.0465,0.0202 0.009,-0.003 0,0 z m 1.5151,0.29719 c 0.0402,0.0184 0.01,0.007 0,0 z m 8.38743,2.28637 c 0.0653,0.007 -0.0432,0.006 0,0 z"
       id="path3347"
       inkscape:connector-curvature="0"
       sodipodi:nodetypes="sccccccccccccccccccccccccscccccccccccc" />
    <flowRoot
       xml:space="preserve"
       id="flowRoot16"
       style="font-style:normal;font-variant:normal;font-weight:normal;font-stretch:normal;font-size:40px;line-height:1.25;font-family:'Bebas Neue';-inkscape-font-specification:'Bebas Neue';letter-spacing:0px;word-spacing:0px;fill:#000000;fill-opacity:1;stroke:none"
       transform="matrix(0.23682889,0,0,0.21484608,-117.77954,80.041669)"><flowRegion
         id="flowRegion18"
         style="font-style:normal;font-variant:normal;font-weight:normal;font-stretch:normal;font-family:'Bebas Neue';-inkscape-font-specification:'Bebas Neue'"><rect
           id="rect20"
           width="363.81729"
           height="239.60847"
           x="100.42414"
           y="193.80099"
           style="font-style:normal;font-variant:normal;font-weight:normal;font-stretch:normal;font-family:'Bebas Neue';-inkscape-font-specification:'Bebas Neue'" /></flowRegion><flowPara
         id="flowPara22" /></flowRoot>    <text
       xml:space="preserve"
       style="font-style:normal;font-weight:normal;font-size:54.32074356px;line-height:1.25;font-family:sans-serif;text-align:end;letter-spacing:0px;word-spacing:0px;text-anchor:end;fill:#000000;fill-opacity:1;stroke:none;stroke-width:1.35801864"
       x="168.44121"
       y="209.02827"
       id="text26"
       transform="scale(1.0499137,0.95245923)"><tspan
         sodipodi:role="line"
         id="tspan34"
         style="font-style:normal;font-variant:normal;font-weight:normal;font-stretch:normal;font-size:54.32022476px;font-family:'Bebas Neue';-inkscape-font-specification:'Bebas Neue, Normal';font-variant-ligatures:normal;font-variant-caps:normal;font-variant-numeric:normal;font-feature-settings:normal;text-align:end;writing-mode:lr-tb;text-anchor:end;stroke-width:1.35801864"
         x="168.44121"
         y="209.02827">Hällfors</tspan></text>
    <text
       xml:space="preserve"
       style="font-style:normal;font-variant:normal;font-weight:normal;font-stretch:normal;font-size:54.32022476px;line-height:1.25;font-family:'Bebas Neue';-inkscape-font-specification:'Bebas Neue, Normal';font-variant-ligatures:normal;font-variant-caps:normal;font-variant-numeric:normal;font-feature-settings:normal;text-align:end;letter-spacing:0px;word-spacing:0px;writing-mode:lr-tb;text-anchor:end;fill:#000000;fill-opacity:1;stroke:none;stroke-width:1.35801864"
       x="170.40746"
       y="260.71271"
       id="text26-9"
       transform="scale(1.0499137,0.95245923)"><tspan
         sodipodi:role="line"
         id="tspan54"
         x="170.40746"
         y="260.71271"
         style="stroke-width:1.35801864">Gård</tspan></text>
  </g>
</svg>
